PathFileType	3	(X/Y/Z)	C:\Users\koon_\Desktop\																																																																															
DataRate	CameraRate	NumFrames	NumMarkers	Units	OrigDataRate	OrigDataStartFrame	OrigNumFrames																																																																											
100	100	5	27	mm	100	1088	2174																																																																											
Frame#	Time	get:LFHD			get:RFHD			get:LBHD			get:RBHD			get:C7			get:T10			get:CLAV			get:STRN			get:RBAK			get:LSHO			get:LUPA			get:LELB			get:LFRA			get:LWRA			get:LWRB			get:LFIN			get:RSHO			get:RUPA			get:RELB			get:RFRA			get:RWRA			get:RWRB			get:RFIN			get:LASI			get:RASI			get:LPSI			get:RPSI		
		X1	Y1	Z1	X2	Y2	Z2	X3	Y3	Z3	X4	Y4	Z4	X5	Y5	Z5	X6	Y6	Z6	X7	Y7	Z7	X8	Y8	Z8	X9	Y9	Z9	X10	Y10	Z10	X11	Y11	Z11	X12	Y12	Z12	X13	Y13	Z13	X14	Y14	Z14	X15	Y15	Z15	X16	Y16	Z16	X17	Y17	Z17	X18	Y18	Z18	X19	Y19	Z19	X20	Y20	Z20	X21	Y21	Z21	X22	Y22	Z22	X23	Y23	Z23	X24	Y24	Z24	X25	Y25	Z25	X26	Y26	Z26	X27	Y27	Z27
1088	10.87	21.860149	1740.6893	14.559127	-103.07702	1731.4504	-61.409798	88.517982	1700.7853	-100.60764	-43.093761	1687.1797	-171.00555	37.589535	1522.5599	-130.05725	77.561462	1320.5552	-154.93747	-70.027763	1437.8895	40.184399	-74.301003	1278.3424	62.673187	-17.809273	1447.197	-197.78241	125.3918	1531.7814	26.808449	93.471642	1360.4413	152.36063	109.08604	1247.0229	195.92444	16.551842	1252.1454	224.43018	-120.91947	1156.27	261.81088	-73.010696	1144.4771	316.33636	-149.87598	1128.1826	342.67703	-128.02946	1523.3547	-123.79971	-212.97844	1410.4392	-153.90083	-254.78088	1198.0126	-197.5986	-381.45581	1198.9299	-127.90151	-468.62857	1175.7229	-85.031456	-443.46921	1115.9828	-116.92381	-529.41504	1128.6907	-109.03587	112.58461	1093.2886	39.205433	-145.94861	1081.4327	-92.67012	108.94103	1145.9034	-156.59706	33.315434	1134.1541	-197.84973
1089	10.88	20.90612	1751.5891	14.220877	-104.26502	1742.4464	-61.365211	87.272774	1712.981	-101.52282	-44.527626	1699.4839	-171.73624	39.582886	1531.8702	-130.54494	77.399094	1330.7284	-155.59059	-70.51297	1449.8076	38.08334	-75.269341	1290.2861	61.100983	-17.66596	1457.0488	-199.83322	124.83147	1542.549	25.170668	89.969032	1374.2155	152.63881	104.58612	1261.3988	198.59911	11.940761	1269.9413	225.36433	-129.89955	1181.8782	262.95908	-83.434448	1169.2546	318.04773	-161.25601	1157.2146	343.17105	-128.14012	1533.7804	-126.8485	-213.07484	1420.2904	-156.43213	-255.65973	1208.2252	-198.53093	-382.49622	1217.9282	-129.69545	-470.8006	1200.0013	-86.568787	-448.22519	1138.1306	-116.98621	-533.48651	1155.0486	-109.63715	110.66692	1105.6613	40.0751	-147.30785	1093.2533	-93.903351	107.91417	1155.9167	-156.95265	32.687977	1144.1184	-198.40646
1090	10.89	19.895628	1761.4392	13.939687	-105.58945	1752.4683	-61.185349	85.93261	1724.1166	-102.37265	-46.165298	1710.6617	-172.18942	41.275826	1539.6951	-130.91734	77.356056	1339.4744	-156.23973	-71.157845	1460.074	36.153896	-76.268921	1300.7634	59.893906	-18.040911	1465.7141	-201.71422	124.45329	1552.272	23.80538	86.782516	1386.3553	152.73129	100.25516	1274.4821	201.00401	7.563796	1286.5934	225.4357	-138.14211	1205.827	262.43454	-93.239914	1193.1703	318.68723	-171.6024	1185.3864	342.90128	-127.99917	1543.3059	-129.5524	-213.23085	1429.4315	-158.50035	-256.23901	1217.7341	-199.35948	-382.90433	1235.9639	-131.15915	-471.9357	1223.0497	-87.974884	-451.83655	1159.859	-116.74748	-536.33801	1180.6453	-110.73132	109.31097	1116.087	41.433083	-148.3941	1103.9656	-95.043701	107.08315	1164.0403	-157.21762	32.475468	1152.532	-199.24197
1091	10.9	18.771175	1770.4749	13.748812	-107.00604	1761.5248	-60.937019	84.439133	1734.4247	-103.20509	-47.879395	1721.0203	-172.75029	42.128918	1547.5066	-132.78218	77.337624	1346.991	-156.70241	-71.774879	1469.1587	34.316067	-77.473434	1309.9224	58.71611	-18.280613	1473.3336	-202.97563	124.0479	1560.9623	22.892506	83.995094	1396.9655	152.79764	96.152161	1286.1356	203.08376	3.319207	1301.9441	224.76048	-145.69421	1228.7081	260.83817	-102.47051	1215.9401	318.48709	-181.19435	1212.4227	341.73969	-127.64287	1552.0253	-132.03537	-213.2899	1438.0599	-160.25107	-256.59991	1226.6243	-199.92781	-382.61209	1252.8783	-132.34789	-472.16269	1244.8784	-89.340271	-454.8017	1179.8376	-115.88864	-538.49866	1204.9351	-112.60587	107.20102	1124.701	42.362011	-149.88191	1113.6925	-96.040268	106.47004	1170.5369	-157.28844	32.50045	1159.4496	-200.11739
1092	10.91	17.607071	1778.6354	13.602459	-108.46387	1769.6178	-60.735153	82.980644	1743.9734	-103.8964	-49.55291	1730.4248	-173.09669	42.110538	1556.3673	-135.6205	77.341492	1353.5043	-157.04955	-72.627121	1477.0583	32.742962	-79.037865	1317.944	57.671425	-17.98052	1479.976	-203.86446	123.53622	1568.6801	22.142826	81.707077	1406.1132	152.85603	92.197639	1296.2935	204.76881	-0.5781669	1316.0237	223.69185	-152.84756	1250.4128	259.09399	-111.01643	1237.4117	317.47964	-189.89516	1238.3473	340.09808	-127.11591	1560.0729	-134.18246	-213.14053	1446.0879	-161.62933	-256.60004	1234.7949	-199.89063	-381.62997	1268.7024	-133.66675	-471.53378	1265.4612	-91.041328	-456.74469	1199.0895	-116.07096	-538.95673	1227.4647	-113.60303	104.93587	1132.1572	43.90123	-151.47823	1122.3551	-96.903419	106.12225	1175.5752	-156.97255	32.680515	1165.2356	-200.74623
